<?xml version="1.0" encoding="UTF-8"?>
<svg width="16px" height="13px" viewBox="0 0 16 13" version="1.1" xmlns="http://www.w3.org/2000/svg" xmlns:xlink="http://www.w3.org/1999/xlink">
    <!-- Generator: sketchtool 46.2 (44496) - http://www.bohemiancoding.com/sketch -->
    <title>2694390F-DE97-4544-AE07-04A0A78A0130</title>
    <desc>Created with sketchtool.</desc>
    <defs></defs>
    <g id="Symbols" stroke="none" stroke-width="1" fill="none" fill-rule="evenodd">
        <g id="check/selected" transform="translate(-8.000000, -10.000000)" fill-rule="nonzero" fill="#FFFFFF">
            <g id="check">
                <path d="M24,12.3948387 C24,12.6701075 23.9036559,12.904086 23.7109677,13.0967742 L16.2374194,20.5703226 L14.8335484,21.9741935 C14.6408602,22.1668817 14.4068817,22.2632258 14.1316129,22.2632258 C13.8563441,22.2632258 13.6223656,22.1668817 13.4296774,21.9741935 L12.0258065,20.5703226 L8.28903226,16.8335484 C8.09634409,16.6408602 8,16.4068817 8,16.1316129 C8,15.8563441 8.09634409,15.6223656 8.28903226,15.4296774 L9.69290323,14.0258065 C9.8855914,13.8331183 10.1195699,13.7367742 10.3948387,13.7367742 C10.6701075,13.7367742 10.904086,13.8331183 11.0967742,14.0258065 L14.1316129,17.0709677 L20.9032258,10.2890323 C21.095914,10.0963441 21.3298925,10 21.6051613,10 C21.8804301,10 22.1144086,10.0963441 22.3070968,10.2890323 L23.7109677,11.6929032 C23.9036559,11.8855914 24,12.1195699 24,12.3948387 Z"></path>
            </g>
        </g>
    </g>
</svg>