<svg xmlns="http://www.w3.org/2000/svg" width="16" height="16" style=""><rect id="backgroundrect" width="100%" height="100%" x="0" y="0" fill="none" stroke="none"/>
    
<g class="currentLayer" style=""><title>Layer 1</title><path fill="#eb1a1a" fill-rule="nonzero" d="M16 12.875c0 .36-.126.665-.377.916l-1.832 1.832a1.247 1.247 0 0 1-.916.377c-.359 0-.664-.126-.915-.377L8 11.663l-3.96 3.96a1.247 1.247 0 0 1-.915.377c-.36 0-.665-.126-.916-.377L.377 13.79A1.247 1.247 0 0 1 0 12.875c0-.359.126-.664.377-.915L4.337 8 .377 4.04A1.247 1.247 0 0 1 0 3.125c0-.36.126-.665.377-.916L2.21.377C2.46.126 2.765 0 3.125 0c.359 0 .664.126.915.377L8 4.337l3.96-3.96c.251-.251.556-.377.915-.377.36 0 .665.126.916.377l1.832 1.832c.251.251.377.556.377.916 0 .359-.126.664-.377.915L11.663 8l3.96 3.96c.251.251.377.556.377.915z" id="svg_1" class="selected" fill-opacity="1"/></g></svg>