<svg xmlns="http://www.w3.org/2000/svg" width="32" height="32" style=""><rect id="backgroundrect" width="100%" height="100%" x="0" y="0" fill="none" stroke="none"/>
    
<g class="currentLayer" style=""><title>Layer 1</title><path fill="#e74c3c" fill-rule="nonzero" d="M16,32 C7.163,32 0,24.837 0,16 S7.163,0 16,0 s16,7.163 16,16 s-7.163,16 -16,16 zm0,-6.565 c2.1,0 4.19,2.052 4.19,1.3860000000000001 c0,-0.6660000000000001 -0.793,-3.708 -4.19,-3.708 c-3.3970000000000002,0 -4.19,3.007 -4.19,3.708 c0,0.7010000000000001 2.09,-1.3860000000000001 4.19,-1.3860000000000001 zM5.538,14.415 c0.48000000000000004,0.507 1.8850000000000002,-1.9300000000000002 3.179,-3.056 c1.2930000000000001,-1.126 3.042,-1.494 2.807,-2.11 c-0.23500000000000001,-0.6160000000000001 -2.684,0.23500000000000001 -3.6340000000000003,0.8740000000000001 c-0.9500000000000001,0.6380000000000001 -2.833,3.785 -2.352,4.292 zm20.85,0 c0.48100000000000004,-0.507 -1.4020000000000001,-3.654 -2.351,-4.292 c-0.9500000000000001,-0.6400000000000001 -3.4,-1.49 -3.6350000000000002,-0.8740000000000001 c-0.234,0.6160000000000001 1.514,0.984 2.808,2.11 c1.294,1.126 2.6980000000000004,3.563 3.179,3.056 zM11.620000000000001,17.524 c0.9470000000000001,0 1.714,-1.109 1.714,-2.476 c0,-1.368 -0.7670000000000001,-2.477 -1.714,-2.477 s-1.714,1.11 -1.714,2.477 c0,1.367 0.7670000000000001,2.476 1.714,2.476 zm8.762,0 c0.9470000000000001,0 1.714,-1.109 1.714,-2.476 c0,-1.368 -0.7670000000000001,-2.477 -1.714,-2.477 s-1.714,1.11 -1.714,2.477 c0,1.367 0.7670000000000001,2.476 1.714,2.476 zm-12,9.905 A3.4290000000000003,3.4290000000000003 0 0 0 11.81,24 c0,-1.8940000000000001 -1.61,-2.123 -3.43,-6.8420000000000005 C6.8,21.877 4.953,22.106 4.953,24 a3.4290000000000003,3.4290000000000003 0 0 0 3.4290000000000003,3.4290000000000003 z" id="svg_1" class="" fill-opacity="1"/></g></svg>