<?xml version="1.0" encoding="UTF-8"?>
<svg width="24px" height="18px" viewBox="0 0 24 18" version="1.1" xmlns="http://www.w3.org/2000/svg" xmlns:xlink="http://www.w3.org/1999/xlink">
    <!-- Generator: sketchtool 46.2 (44496) - http://www.bohemiancoding.com/sketch -->
    <title>0831DB22-49E1-4F3A-88BC-06CEC892E889</title>
    <desc>Created with sketchtool.</desc>
    <defs></defs>
    <g id="Fields-behaviour" stroke="none" stroke-width="1" fill="none" fill-rule="evenodd">
        <g id="1" transform="translate(-241.000000, -779.000000)" fill="#FFFFFF">
            <g id="icon/password/hide-white" transform="translate(241.000000, 779.000000)">
                <g id="icon/password/hide">
                    <path class="hidePass" d="M7.43303571,14.0223214 L8.47767857,12.1339286 C7.70089286,11.5714286 7.09375,10.8616071 6.65625,10.0044643 C6.21875,9.14732143 6,8.24107143 6,7.28571429 C6,6.20535714 6.27232143,5.20089286 6.81696429,4.27232143 C4.77232143,5.31696429 3.07142857,6.89285714 1.71428571,9 C3.20535714,11.3035714 5.11160714,12.9776786 7.43303571,14.0223214 Z M12.6428571,3.85714286 C12.6428571,3.67857143 12.5803571,3.52678571 12.4553571,3.40178571 C12.3303571,3.27678571 12.1785714,3.21428571 12,3.21428571 C10.8839286,3.21428571 9.92633929,3.61383929 9.12723214,4.41294643 C8.328125,5.21205357 7.92857143,6.16964286 7.92857143,7.28571429 C7.92857143,7.46428571 7.99107143,7.61607143 8.11607143,7.74107143 C8.24107143,7.86607143 8.39285714,7.92857143 8.57142857,7.92857143 C8.75,7.92857143 8.90178571,7.86607143 9.02678571,7.74107143 C9.15178571,7.61607143 9.21428571,7.46428571 9.21428571,7.28571429 C9.21428571,6.51785714 9.48660714,5.86160714 10.03125,5.31696429 C10.5758929,4.77232143 11.2321429,4.5 12,4.5 C12.1785714,4.5 12.3303571,4.4375 12.4553571,4.3125 C12.5803571,4.1875 12.6428571,4.03571429 12.6428571,3.85714286 Z M17.5044643,1.29910714 C17.5044643,1.36160714 17.5,1.40178571 17.4910714,1.41964286 C16.5535714,3.09821429 15.1473214,5.625 13.2723214,9 C11.3973214,12.375 9.98660714,14.90625 9.04017857,16.59375 L8.38392857,17.7857143 C8.29464286,17.9285714 8.16964286,18 8.00892857,18 C7.90178571,18 7.30357143,17.6875 6.21428571,17.0625 C6.07142857,16.9732143 6,16.8482143 6,16.6875 C6,16.5803571 6.19642857,16.1919643 6.58928571,15.5223214 C5.3125,14.9419643 4.13616071,14.1696429 3.06026786,13.2053571 C1.984375,12.2410714 1.05357143,11.1473214 0.267857143,9.92410714 C0.0892857143,9.64732143 0,9.33928571 0,9 C0,8.66071429 0.0892857143,8.35267857 0.267857143,8.07589286 C1.63392857,5.97767857 3.33035714,4.32142857 5.35714286,3.10714286 C7.38392857,1.89285714 9.59821429,1.28571429 12,1.28571429 C12.7946429,1.28571429 13.5982143,1.36160714 14.4107143,1.51339286 L15.1339286,0.214285714 C15.2232143,0.0714285714 15.3482143,0 15.5089286,0 C15.5535714,0 15.6339286,0.0267857143 15.75,0.0803571429 C15.8660714,0.133928571 16.0044643,0.203125 16.1651786,0.287946429 C16.3258929,0.372767857 16.4732143,0.455357143 16.6071429,0.535714286 C16.7410714,0.616071429 16.8816964,0.698660714 17.0290179,0.783482143 C17.1763393,0.868303571 17.2633929,0.919642857 17.2901786,0.9375 C17.4330357,1.02678571 17.5044643,1.14732143 17.5044643,1.29910714 Z M18,7.28571429 C18,8.52678571 17.6473214,9.65848214 16.9419643,10.6808036 C16.2366071,11.703125 15.3035714,12.4375 14.1428571,12.8839286 L17.8928571,6.16071429 C17.9642857,6.5625 18,6.9375 18,7.28571429 Z M24,9 C24,9.3125 23.9107143,9.62053571 23.7321429,9.92410714 C23.3839286,10.4955357 22.8973214,11.1428571 22.2723214,11.8660714 C20.9330357,13.4017857 19.3816964,14.59375 17.6183036,15.4419643 C15.8549107,16.2901786 13.9821429,16.7142857 12,16.7142857 L12.9910714,14.9464286 C14.8839286,14.7857143 16.6361607,14.1741071 18.2477679,13.1116071 C19.859375,12.0491071 21.2053571,10.6785714 22.2857143,9 C21.2589286,7.40178571 20,6.08928571 18.5089286,5.0625 L19.3526786,3.5625 C20.2008929,4.13392857 21.015625,4.81696429 21.796875,5.61160714 C22.578125,6.40625 23.2232143,7.22767857 23.7321429,8.07589286 C23.9107143,8.37946429 24,8.6875 24,9 Z" id="Shape" fill-rule="nonzero"></path>
                </g>
            </g>
        </g>
    </g>
</svg>