<?xml version="1.0" encoding="UTF-8"?>
<svg width="32px" height="22px" viewBox="0 0 32 22" version="1.1" xmlns="http://www.w3.org/2000/svg" xmlns:xlink="http://www.w3.org/1999/xlink">
    <!-- Generator: sketchtool 46.2 (44496) - http://www.bohemiancoding.com/sketch -->
    <title>3D276592-52CC-4E2B-90D6-30055FB544CE</title>
    <desc>Created with sketchtool.</desc>
    <defs></defs>
    <g id="Symbols" stroke="none" stroke-width="1" fill="none" fill-rule="evenodd">
        <g id="icon/password/show-white" fill-rule="nonzero" fill="#FFFFFF">
            <g id="icon/password/show" transform="translate(0.000000, 0.714286)">
                <path d="M29.7142857,10.2857143 C27.9047619,7.47619048 25.6369048,5.375 22.9107143,3.98214286 C23.6369048,5.2202381 24,6.55952381 24,8 C24,10.202381 23.2172619,12.0863095 21.6517857,13.6517857 C20.0863095,15.2172619 18.202381,16 16,16 C13.797619,16 11.9136905,15.2172619 10.3482143,13.6517857 C8.7827381,12.0863095 8,10.202381 8,8 C8,6.55952381 8.36309524,5.2202381 9.08928571,3.98214286 C6.36309524,5.375 4.0952381,7.47619048 2.28571429,10.2857143 C3.86904762,12.7261905 5.85416667,14.6696429 8.24107143,16.1160714 C10.6279762,17.5625 13.2142857,18.2857143 16,18.2857143 C18.7857143,18.2857143 21.3720238,17.5625 23.7589286,16.1160714 C26.1458333,14.6696429 28.1309524,12.7261905 29.7142857,10.2857143 Z M16.8571429,3.42857143 C16.8571429,3.19047619 16.7738095,2.98809524 16.6071429,2.82142857 C16.4404762,2.6547619 16.2380952,2.57142857 16,2.57142857 C14.5119048,2.57142857 13.235119,3.10416667 12.1696429,4.16964286 C11.1041667,5.23511905 10.5714286,6.51190476 10.5714286,8 C10.5714286,8.23809524 10.6547619,8.44047619 10.8214286,8.60714286 C10.9880952,8.77380952 11.1904762,8.85714286 11.4285714,8.85714286 C11.6666667,8.85714286 11.8690476,8.77380952 12.0357143,8.60714286 C12.202381,8.44047619 12.2857143,8.23809524 12.2857143,8 C12.2857143,6.97619048 12.6488095,6.10119048 13.375,5.375 C14.1011905,4.64880952 14.9761905,4.28571429 16,4.28571429 C16.2380952,4.28571429 16.4404762,4.20238095 16.6071429,4.03571429 C16.7738095,3.86904762 16.8571429,3.66666667 16.8571429,3.42857143 Z M32,10.2857143 C32,10.6904762 31.8809524,11.1011905 31.6428571,11.5178571 C29.9761905,14.2559524 27.735119,16.4494048 24.9196429,18.0982143 C22.1041667,19.7470238 19.1309524,20.5714286 16,20.5714286 C12.8690476,20.5714286 9.89583333,19.7440476 7.08035714,18.0892857 C4.26488095,16.4345238 2.02380952,14.2440476 0.357142857,11.5178571 C0.119047619,11.1011905 0,10.6904762 0,10.2857143 C0,9.88095238 0.119047619,9.4702381 0.357142857,9.05357143 C2.02380952,6.32738095 4.26488095,4.13690476 7.08035714,2.48214286 C9.89583333,0.827380952 12.8690476,0 16,0 C19.1309524,0 22.1041667,0.827380952 24.9196429,2.48214286 C27.735119,4.13690476 29.9761905,6.32738095 31.6428571,9.05357143 C31.8809524,9.4702381 32,9.88095238 32,10.2857143 Z" id="Shape"></path>
            </g>
        </g>
    </g>
</svg>